<svg xmlns="http://www.w3.org/2000/svg" version="1.1" xmlns:xlink="http://www.w3.org/1999/xlink" xmlns:svgjs="http://svgjs.com/svgjs" width="1440" height="560" preserveAspectRatio="none" viewBox="0 0 1440 560"><g mask="url(&quot;#SvgjsMask1006&quot;)" fill="none"><rect width="1440" height="560" x="0" y="0" fill="#0e2a47"></rect><path d="M0,433.488C78.459,417.147,139.094,364.124,209.985,326.743C288.993,285.082,405.881,283.509,440.546,201.191C475.404,118.415,397.742,32.223,369.979,-53.195C347.387,-122.703,332.214,-192.145,292.716,-253.64C247.951,-323.336,205.607,-406.324,126.793,-431.816C47.693,-457.4,-32.982,-407.391,-113.007,-384.867C-194.042,-362.058,-280.503,-353.024,-345.069,-299.004C-415.578,-240.012,-471.907,-160.638,-488.981,-70.305C-506.389,21.797,-476.541,114.61,-439.522,200.723C-401.842,288.373,-359.196,383.076,-274.883,427.727C-192.218,471.506,-91.577,452.561,0,433.488" fill="#0b2239"></path><path d="M1440 1264.104C1570.317 1229.692 1593.352 1047.214 1700.923 966.004 1795.882 894.315 1960.4740000000002 927.7529999999999 2021.121 825.389 2081.0860000000002 724.177 1995.5929999999998 598.593 1988.1599999999999 481.18600000000004 1979.884 350.473 2060.817 195.36399999999998 1974.97 96.44600000000003 1889.1100000000001-2.4869999999999663 1725.824 45.62800000000004 1595.868 29.160999999999945 1488.33 15.534999999999968 1385.892-1.8559999999999945 1277.955 8.125999999999976 1147.188 20.220000000000027 986.808-6.456999999999994 901.492 93.38 816.098 193.30700000000002 871.491 347.486 875.682 478.863 879.158 587.844 892.445 691.296 923.894 795.698 959.9680000000001 915.453 979.8050000000001 1047.913 1072.4189999999999 1131.967 1170.827 1221.28 1311.509 1298.033 1440 1264.104" fill="#113255"></path></g><defs><mask id="SvgjsMask1006"><rect width="1440" height="560" fill="#ffffff"></rect></mask></defs></svg>